<svg width="12" height="15" viewBox="0 0 12 15" fill="none" xmlns="http://www.w3.org/2000/svg">
<path d="M10 5.99554C10.5417 5.99554 11.0104 6.19346 11.4062 6.58929C11.8021 6.98513 12 7.45388 12 7.99554V9.02679C12 9.38096 11.8646 9.69346 11.5938 9.96429C11.3438 10.2143 11.0417 10.3393 10.6875 10.3393C10.3333 10.3393 10.0312 10.2143 9.78125 9.96429L8.34375 8.52679L6.90625 9.96429C6.65625 10.2143 6.34375 10.3393 5.96875 10.3393C5.61458 10.3393 5.3125 10.2143 5.0625 9.96429L3.65625 8.52679L2.21875 9.96429C1.96875 10.2143 1.66667 10.3393 1.3125 10.3393C0.958333 10.3393 0.645833 10.2143 0.375 9.96429C0.125 9.69346 0 9.38096 0 9.02679V7.99554C0 7.45388 0.197917 6.98513 0.59375 6.58929C0.989583 6.19346 1.45833 5.99554 2 5.99554H5.34375V4.65179H6.65625V5.99554H10ZM9.0625 10.6518C9.52083 11.1101 10.0625 11.3393 10.6875 11.3393C11.1458 11.3393 11.5833 11.2039 12 10.933V13.9955C12 14.183 11.9375 14.3393 11.8125 14.4643C11.6875 14.5893 11.5312 14.6518 11.3438 14.6518H0.65625C0.46875 14.6518 0.3125 14.5893 0.1875 14.4643C0.0625 14.3393 0 14.183 0 13.9955V10.933C0.395833 11.2039 0.833333 11.3393 1.3125 11.3393C1.9375 11.3393 2.47917 11.1101 2.9375 10.6518L3.65625 9.93304L4.375 10.6518C4.8125 11.0893 5.35417 11.308 6 11.308C6.64583 11.308 7.1875 11.0893 7.625 10.6518L8.34375 9.93304L9.0625 10.6518ZM6 3.99554C5.64583 3.99554 5.33333 3.86013 5.0625 3.58929C4.79167 3.31846 4.65625 3.00596 4.65625 2.65179C4.65625 2.42263 4.72917 2.19346 4.875 1.96429L6 -0.00445557L7.125 1.96429C7.27083 2.19346 7.34375 2.42263 7.34375 2.65179C7.34375 3.02679 7.20833 3.34971 6.9375 3.62054C6.6875 3.87054 6.375 3.99554 6 3.99554Z" fill="#B8C7CC"/>
</svg>
