<svg width="14" height="12" viewBox="0 0 14 12" fill="none" xmlns="http://www.w3.org/2000/svg">
<path d="M12.3438 3.41782V2.07407L7 5.41782L1.65625 2.07407V3.41782L7 6.73032L12.3438 3.41782ZM12.3438 0.730316C12.6979 0.730316 13 0.865733 13.25 1.13657C13.5208 1.4074 13.6562 1.7199 13.6562 2.07407V10.0741C13.6562 10.4282 13.5208 10.7407 13.25 11.0116C13 11.2824 12.6979 11.4178 12.3438 11.4178H1.65625C1.30208 11.4178 0.989583 11.2824 0.71875 11.0116C0.46875 10.7407 0.34375 10.4282 0.34375 10.0741V2.07407C0.34375 1.7199 0.46875 1.4074 0.71875 1.13657C0.989583 0.865733 1.30208 0.730316 1.65625 0.730316H12.3438Z" fill="#B8C7CC"/>
</svg>
