<svg width="12" height="13" viewBox="0 0 12 13" fill="none" xmlns="http://www.w3.org/2000/svg">
<path d="M2.40625 5.26157C3.40625 7.19907 4.875 8.66782 6.8125 9.66782L8.28125 8.19907C8.48958 7.99073 8.71875 7.93865 8.96875 8.04282C9.71875 8.29282 10.5104 8.41782 11.3438 8.41782C11.5312 8.41782 11.6875 8.48032 11.8125 8.60532C11.9375 8.73032 12 8.88657 12 9.07407V11.4178C12 11.6053 11.9375 11.7616 11.8125 11.8866C11.6875 12.0116 11.5312 12.0741 11.3438 12.0741C8.21875 12.0741 5.54167 10.9699 3.3125 8.76157C1.10417 6.5324 0 3.85532 0 0.730316C0 0.542816 0.0625 0.386566 0.1875 0.261566C0.3125 0.136566 0.46875 0.0740662 0.65625 0.0740662H3C3.1875 0.0740662 3.34375 0.136566 3.46875 0.261566C3.59375 0.386566 3.65625 0.542816 3.65625 0.730316C3.65625 1.56365 3.78125 2.35532 4.03125 3.10532C4.11458 3.37615 4.0625 3.60532 3.875 3.79282L2.40625 5.26157Z" fill="#B8C7CC"/>
</svg>
