<svg width="16" height="14" viewBox="0 0 16 14" fill="none" xmlns="http://www.w3.org/2000/svg">
<path d="M10.5938 10.3808H12.75L11.6562 7.47455L10.5938 10.3808ZM12.3438 5.6933L15.3438 13.6933H14L13.25 11.6933H10.0938L9.34375 13.6933H8L11 5.6933H12.3438ZM8.59375 9.0683L8.0625 10.4433L6 8.3808L2.65625 11.6933L1.71875 10.7558L5.125 7.41205C4.29167 6.49538 3.625 5.48497 3.125 4.3808H4.46875C4.90625 5.21413 5.41667 5.95372 6 6.59955C6.95833 5.53705 7.66667 4.34955 8.125 3.03705H0.65625V1.6933H5.34375V0.380798H6.65625V1.6933H11.3438V3.03705H9.375C9.16667 3.70372 8.82292 4.46413 8.34375 5.3183C7.86458 6.15163 7.38542 6.83913 6.90625 7.3808L6.875 7.41205L8.59375 9.0683Z" fill="#B8C7CC"/>
</svg>
